<svg width="185" height="42" viewBox="0 0 185 42" fill="none" xmlns="http://www.w3.org/2000/svg">
<path d="M74 15.4933H134.973L152.24 0H72.3813C50.4125 0 44.4771 2.35167 32.5292 12.5192C20.8896 22.825 0 41.5 0 41.5H26.0542C31.9896 36.3125 43.0125 26.7675 48.0229 22.4792C55.1146 16.4617 58.5833 15.4933 74 15.4933ZM157.173 0L110.923 41.5H138.75L185 0H157.173ZM132.121 18.0525H76.1583C59.0458 18.0525 56.1167 18.8825 48.7938 25.4533C41.9333 31.6092 30.8333 41.5 30.8333 41.5H55.1146L60.8958 36.3125C64.6729 32.9233 66.6771 32.5083 74.6167 32.5083H116.01L132.121 18.0525Z" fill="white"/>
</svg>
